<?xml version="1.0" standalone="no"?>
<!DOCTYPE svg PUBLIC "-//W3C//DTD SVG 20010904//EN"
 "http://www.w3.org/TR/2001/REC-SVG-20010904/DTD/svg10.dtd">
<svg version="1.0" xmlns="http://www.w3.org/2000/svg"
 width="1920.000000pt" height="1080.000000pt" viewBox="0 0 1920.000000 1080.000000"
 preserveAspectRatio="xMidYMid meet">

<g transform="translate(0.000000,1080.000000) scale(0.100000,-0.100000)"
fill="#000000" stroke="none">
<path d="M9059 10796 c-3 -3 -75 -11 -160 -16 -313 -21 -707 -86 -1034 -170
-225 -58 -610 -192 -790 -275 -535 -248 -897 -473 -1298 -810 -723 -605 -1268
-1377 -1589 -2250 -107 -292 -157 -460 -209 -697 -21 -98 -25 -119 -59 -313
-41 -229 -73 -602 -73 -845 -1 -213 35 -642 69 -837 8 -46 21 -122 29 -169 84
-484 265 -1014 503 -1474 308 -594 764 -1172 1258 -1596 77 -65 141 -121 144
-124 3 -4 75 -58 160 -122 260 -194 543 -370 799 -498 544 -272 1072 -438
1671 -525 247 -35 560 -60 765 -60 194 0 569 32 765 65 30 5 80 13 110 19 50
8 197 37 310 60 155 33 401 106 620 184 1410 506 2551 1588 3143 2982 99 233
217 589 271 815 50 214 99 519 120 755 43 478 44 525 21 807 -37 456 -65 647
-145 988 -7 32 -79 280 -113 390 -50 164 -195 517 -287 700 -381 761 -910
1403 -1570 1906 -337 257 -765 506 -1140 663 -69 29 -138 59 -155 66 -47 21
-197 73 -350 121 -301 96 -643 169 -1050 224 -181 24 -722 51 -736 36z m3005
-2078 c-31 -103 -320 -622 -507 -913 -121 -186 -558 -800 -922 -1295 -51 -69
-150 -204 -220 -300 -195 -266 -516 -698 -959 -1291 -221 -296 -556 -744 -745
-998 -189 -254 -346 -461 -350 -461 -3 0 -40 66 -81 147 -41 82 -101 195 -132
253 -32 58 -58 110 -58 117 0 7 93 124 207 260 114 136 224 268 244 293 62 75
248 300 359 435 121 147 153 186 356 430 82 99 232 281 334 405 102 123 321
388 488 589 167 201 352 425 411 496 308 374 398 482 521 629 152 181 177 214
133 171 -26 -26 -374 -412 -668 -740 -49 -55 -130 -145 -180 -201 -49 -55
-155 -174 -235 -264 -80 -90 -201 -227 -270 -304 -70 -78 -162 -182 -205 -231
-44 -50 -156 -176 -249 -280 -92 -105 -214 -242 -271 -305 -56 -63 -268 -302
-470 -530 -501 -563 -625 -701 -641 -707 -19 -7 -546 136 -562 152 -9 9 37 59
354 378 187 188 591 599 899 912 720 734 2306 2320 2456 2456 256 231 719 585
912 695 52 30 60 30 51 2z m-2664 -1965 c2 -2 3 -33 2 -70 l-3 -65 -277 -284
-277 -284 -392 0 c-215 0 -398 -3 -407 -6 -14 -5 -16 -51 -16 -412 l0 -406
-92 -95 c-256 -265 -670 -682 -681 -684 -9 -1 -13 179 -17 798 l-5 800 -664 3
c-603 2 -663 4 -657 18 3 9 71 125 150 258 79 132 169 285 200 338 l57 98
1437 3 c1339 2 1630 0 1642 -10z m2980 -9 c0 -9 -17 -44 -37 -78 -52 -86 -308
-501 -349 -563 l-34 -53 -700 0 c-506 0 -700 3 -700 11 0 6 22 41 48 78 27 36
116 158 198 271 83 113 165 228 184 255 18 28 42 60 53 73 l20 22 659 0 c600
0 658 -1 658 -16z m-2308 -1391 c1 -21 2 -236 3 -478 2 -289 6 -459 14 -495
22 -104 90 -181 186 -211 30 -9 280 -14 1005 -18 887 -6 965 -7 964 -22 -1 -9
-40 -79 -88 -155 -47 -77 -141 -229 -209 -339 l-122 -200 -690 -3 c-871 -3
-988 6 -1223 99 -195 77 -343 199 -447 369 -69 113 -125 290 -140 441 l-6 66
153 204 c192 256 357 478 466 628 124 172 131 177 134 114z m-2936 -1147 c43
-13 189 -56 324 -96 322 -94 462 -139 476 -153 7 -7 105 -197 220 -423 185
-365 207 -414 198 -435 -14 -30 -154 -199 -165 -199 -4 0 -27 33 -50 73 -56
96 -265 437 -284 462 -15 18 -26 19 -170 17 -104 -2 -156 1 -160 8 -4 6 -18
64 -31 128 -38 182 -41 190 -77 209 -78 40 -384 152 -501 182 -44 12 -81 23
-84 26 -7 7 19 43 103 138 53 60 83 87 99 87 12 0 58 -11 102 -24z m244 -762
c11 -65 20 -122 20 -126 0 -4 47 -9 105 -10 l105 -3 -81 -90 c-44 -49 -117
-130 -162 -179 -45 -49 -93 -104 -107 -122 -14 -18 -28 -33 -32 -34 -3 0 -11
30 -17 68 -6 37 -18 108 -26 157 -8 50 -15 122 -15 160 l0 70 93 116 c50 63
93 115 95 114 1 -1 11 -56 22 -121z m-321 -371 c7 -54 19 -127 26 -163 7 -36
16 -90 20 -120 6 -52 4 -57 -27 -90 -18 -19 -59 -66 -91 -103 l-59 -67 -29 21
c-20 14 -29 29 -29 47 0 15 -9 90 -20 166 -10 77 -16 145 -12 151 13 23 197
253 202 254 3 1 12 -43 19 -96z m-319 -343 c0 -43 -5 -47 -33 -26 -18 14 -18
16 -2 40 24 37 35 32 35 -14z m-107 -158 c51 -42 129 -106 174 -142 55 -43 83
-72 83 -85 0 -30 -38 -246 -44 -252 -35 -36 -441 -25 -475 13 -12 13 -57 138
-76 209 -9 33 -18 101 -22 151 -6 89 -5 92 17 104 33 18 211 78 233 79 10 1
59 -34 110 -77z"/>
</g>
</svg>
